<svg width="5208" height="2817" viewBox="0 0 5208 2817" fill="none" xmlns="http://www.w3.org/2000/svg" xmlns:xlink="http://www.w3.org/1999/xlink">
<rect width="5208" height="2817" fill="#1745B9"/>

<g transform="translate(0, -300)">
  <path d="M858.396 771.363L842.835 785.224L843.488 853.351L858.608 861.839L818.992 868.777L824.877 860.394L807.247 808.231L806.075 866.756L819.161 873.816L778.835 878.737L790.452 865.995L758.622 799.187L741.472 794.196L788.994 777.378L776.857 789.997L796.886 854.232L800.412 805.074L789.886 799.993L825.226 789.022L814.861 800.759L831.22 843.222L832.764 783.561L817.728 775.558L858.396 771.363ZM885.183 835.056C886.236 837.537 887.489 839.935 888.941 842.25C890.386 844.519 892.017 846.494 893.834 848.175C895.651 849.855 897.634 851.126 899.784 851.987C901.933 852.847 904.231 853.064 906.679 852.635C909.911 852.069 912.61 850.906 914.776 849.147C916.943 847.387 918.61 845.358 919.778 843.06C920.938 840.715 921.603 838.267 921.775 835.715C921.939 833.116 921.638 830.718 920.872 828.52C922.254 828.802 923.433 829.285 924.41 829.971C925.432 830.648 926.264 831.454 926.903 832.389C927.581 833.27 928.105 834.225 928.476 835.255C928.838 836.238 929.105 837.215 929.274 838.184C929.663 840.401 929.392 842.661 928.463 844.965C927.526 847.223 926.022 849.366 923.95 851.395C921.916 853.369 919.392 855.12 916.375 856.647C913.359 858.175 909.958 859.27 906.172 859.933C901.093 860.823 896.371 860.627 892.007 859.345C887.688 858.055 883.849 855.967 880.488 853.082C877.119 850.15 874.296 846.528 872.018 842.216C869.74 837.904 868.148 833.162 867.242 827.99C866.32 822.727 866.21 817.749 866.911 813.058C867.604 808.321 869.107 804.131 871.42 800.49C873.779 796.841 876.918 793.841 880.837 791.489C884.755 789.137 889.49 787.641 895.041 787.002C898.876 786.616 902.552 787.091 906.069 788.426C909.587 789.761 912.786 791.723 915.666 794.312C918.585 796.846 921.095 799.904 923.198 803.486C925.346 807.06 926.946 810.896 927.997 814.995L885.183 835.056ZM881.914 824.136C882.028 824.782 882.141 825.429 882.254 826.075C882.359 826.675 882.515 827.291 882.72 827.921L911.184 811.515C909.586 808.368 907.934 805.731 906.229 803.602C904.562 801.42 902.902 799.688 901.25 798.407C899.598 797.126 897.996 796.264 896.443 795.822C894.929 795.326 893.525 795.191 892.232 795.418C890.293 795.757 888.649 796.426 887.301 797.423C885.953 798.421 884.838 799.663 883.956 801.15C883.113 802.583 882.448 804.222 881.962 806.068C881.523 807.906 881.242 809.834 881.12 811.855C880.998 813.875 881.003 815.944 881.136 818.062C881.307 820.126 881.567 822.151 881.914 824.136ZM956.13 839.906L970.952 843.02L936.848 852.491L947.604 840.542L932.358 766.119L915.146 761.995L949.378 751.217L956.13 839.906ZM996.019 770.531C999.897 769.852 1003.56 770.092 1006.99 771.25C1010.47 772.355 1013.43 774.168 1015.87 776.691L1027.37 760.043L1022.44 799.525C1021.34 795.72 1020.12 792.555 1018.78 790.03C1017.42 787.46 1016.02 785.398 1014.55 783.846C1013.13 782.239 1011.71 781.06 1010.29 780.309C1008.92 779.55 1007.67 779.032 1006.52 778.756C1005.43 778.473 1004.48 778.353 1003.68 778.398C1002.92 778.435 1002.45 778.47 1002.27 778.502C998.944 779.085 996.056 780.257 993.605 782.018C991.153 783.78 989.176 786.078 987.673 788.911C986.217 791.735 985.3 795.061 984.923 798.886C984.538 802.665 984.75 806.864 985.559 811.481C986.335 815.913 987.553 819.745 989.214 822.976C990.866 826.16 992.771 828.753 994.93 830.755C997.089 832.756 999.405 834.159 1001.88 834.963C1004.34 835.721 1006.77 835.89 1009.18 835.47C1011.99 834.976 1014.49 833.896 1016.67 832.229C1018.85 830.516 1020.61 828.471 1021.95 826.094C1023.3 823.717 1024.15 821.116 1024.51 818.293C1024.91 815.415 1024.72 812.569 1023.95 809.755C1024.59 810.166 1025.28 810.688 1026 811.322C1026.78 811.947 1027.5 812.677 1028.17 813.512C1028.88 814.292 1029.49 815.185 1030 816.19C1030.5 817.149 1030.84 818.16 1031.03 819.222C1031.58 822.362 1031.31 825.335 1030.24 828.141C1029.19 830.893 1027.65 833.352 1025.6 835.519C1023.56 837.686 1021.13 839.49 1018.34 840.931C1015.56 842.418 1012.71 843.417 1009.8 843.926C1008.55 844.144 1006.82 844.305 1004.6 844.408C1002.43 844.503 999.997 844.334 997.304 843.902C994.665 843.507 991.911 842.728 989.043 841.565C986.174 840.402 983.443 838.667 980.85 836.361C978.304 834.047 976.017 831.045 973.991 827.355C971.964 823.665 970.47 819.073 969.508 813.578C968.651 808.684 968.449 804.27 968.902 800.336C969.393 796.347 970.32 792.806 971.681 789.713C973.089 786.611 974.809 783.93 976.84 781.671C978.871 779.412 981.014 777.514 983.267 775.977C985.52 774.44 987.76 773.239 989.988 772.373C992.254 771.452 994.264 770.839 996.019 770.531ZM1037.02 798.827C1036.12 793.656 1036.09 788.736 1036.94 784.066C1037.82 779.343 1039.44 775.11 1041.78 771.369C1044.17 767.619 1047.21 764.492 1050.91 761.988C1054.65 759.43 1058.93 757.73 1063.73 756.889C1068.39 756.072 1072.81 756.201 1077 757.277C1081.18 758.306 1084.97 760.14 1088.39 762.778C1091.8 765.416 1094.74 768.779 1097.22 772.866C1099.7 776.953 1101.56 781.624 1102.81 786.877C1104.13 792.499 1104.43 797.753 1103.72 802.637C1103.04 807.467 1101.53 811.752 1099.19 815.494C1096.84 819.189 1093.78 822.27 1090.03 824.736C1086.32 827.194 1082.11 828.835 1077.4 829.66C1072.87 830.453 1068.42 830.401 1064.02 829.504C1059.67 828.554 1055.65 826.784 1051.96 824.194C1048.31 821.596 1045.17 818.196 1042.53 813.995C1039.89 809.747 1038.05 804.691 1037.02 798.827ZM1054.27 797.021C1054.98 801.084 1056.2 804.654 1057.93 807.73C1059.65 810.806 1061.69 813.328 1064.03 815.297C1066.37 817.22 1068.92 818.583 1071.67 819.385C1074.43 820.186 1077.22 820.341 1080.04 819.847C1082.85 819.354 1085.38 818.293 1087.62 816.664C1089.84 814.989 1091.67 812.885 1093.08 810.354C1094.48 807.776 1095.42 804.828 1095.88 801.511C1096.35 798.193 1096.25 794.618 1095.58 790.786C1094.91 787 1093.78 783.533 1092.18 780.387C1090.58 777.194 1088.63 774.513 1086.35 772.343C1084.11 770.165 1081.62 768.579 1078.88 767.584C1076.13 766.589 1073.28 766.351 1070.33 766.868C1067.7 767.329 1065.24 768.378 1062.96 770.015C1060.72 771.644 1058.83 773.783 1057.3 776.431C1055.76 779.033 1054.67 782.079 1054.04 785.567C1053.46 789.048 1053.54 792.865 1054.27 797.021ZM1112.56 822.146L1119.85 810.376L1116.34 762.594L1099.88 754.626L1123.71 752.095L1124.94 759.16C1126.28 756.498 1127.79 754.354 1129.46 752.73C1131.17 751.097 1132.78 749.84 1134.29 748.956C1136.06 747.932 1137.86 747.212 1139.7 746.796C1142.97 746.222 1146.07 746.37 1148.98 747.24C1151.89 748.11 1154.34 749.585 1156.32 751.665C1157.86 749.017 1159.76 746.805 1162.01 745.029C1164.26 743.207 1166.84 742.042 1169.75 741.532C1172.39 741.071 1174.94 741.243 1177.41 742.047C1179.88 742.852 1182.12 744.197 1184.11 746.084C1186.16 747.963 1187.91 750.392 1189.39 753.37C1190.9 756.294 1191.99 759.648 1192.65 763.435C1193.13 766.159 1193.44 769.031 1193.59 772.05C1193.78 775.062 1193.83 778.075 1193.74 781.089C1193.7 784.095 1193.5 787.056 1193.16 789.971C1192.8 792.841 1192.35 795.538 1191.79 798.063L1202.39 800.704L1169.16 813.161L1182.21 798.384C1182.07 793.269 1181.74 788.64 1181.2 784.498C1180.71 780.302 1180.2 776.75 1179.69 773.841C1178.39 766.407 1176.55 761.163 1174.16 758.107C1171.81 755.044 1169 753.8 1165.72 754.374C1163.74 754.721 1161.88 755.785 1160.14 757.564C1160.61 758.623 1160.96 759.777 1161.17 761.023C1161.67 763.84 1161.95 766.789 1162.01 769.871C1162.12 772.945 1162.08 775.997 1161.9 779.027C1161.72 782.057 1161.43 785.011 1161.03 787.889C1160.63 790.767 1160.18 793.391 1159.69 795.761L1170.8 801.738L1142.89 806.626L1150.92 797.44C1150.72 793.049 1150.35 788.594 1149.79 784.074C1149.23 779.509 1148.6 775.241 1147.91 771.27C1147.08 766.561 1145.88 762.964 1144.3 760.48C1142.77 757.988 1140.6 756.989 1137.78 757.482C1136.35 757.732 1135.06 758.244 1133.91 759.016C1132.81 759.781 1131.81 760.718 1130.91 761.827C1130.05 762.928 1129.27 764.16 1128.56 765.522C1127.89 766.876 1127.3 768.265 1126.79 769.687L1133.4 807.433L1146.49 813.706L1112.56 822.146ZM1222.06 776.059C1223.11 778.539 1224.36 780.937 1225.81 783.252C1227.26 785.522 1228.89 787.497 1230.71 789.177C1232.52 790.858 1234.51 792.128 1236.66 792.989C1238.81 793.85 1241.1 794.066 1243.55 793.637C1246.78 793.071 1249.48 791.909 1251.65 790.149C1253.82 788.39 1255.48 786.361 1256.65 784.062C1257.81 781.718 1258.48 779.269 1258.65 776.717C1258.81 774.119 1258.51 771.721 1257.74 769.523C1259.13 769.804 1260.31 770.288 1261.28 770.973C1262.31 771.651 1263.14 772.457 1263.78 773.392C1264.45 774.273 1264.98 775.228 1265.35 776.257C1265.71 777.241 1265.98 778.217 1266.15 779.187C1266.54 781.403 1266.27 783.663 1265.34 785.968C1264.4 788.226 1262.89 790.369 1260.82 792.397C1258.79 794.371 1256.26 796.122 1253.25 797.65C1250.23 799.177 1246.83 800.273 1243.04 800.936C1237.97 801.825 1233.24 801.629 1228.88 800.347C1224.56 799.057 1220.72 796.97 1217.36 794.084C1213.99 791.153 1211.17 787.531 1208.89 783.218C1206.61 778.906 1205.02 774.164 1204.12 768.993C1203.19 763.729 1203.08 758.752 1203.78 754.061C1204.48 749.323 1205.98 745.134 1208.29 741.493C1210.65 737.844 1213.79 734.843 1217.71 732.491C1221.63 730.139 1226.36 728.644 1231.91 728.005C1235.75 727.619 1239.42 728.093 1242.94 729.428C1246.46 730.763 1249.66 732.725 1252.54 735.314C1255.46 737.849 1257.97 740.907 1260.07 744.488C1262.22 748.062 1263.82 751.898 1264.87 755.997L1222.06 776.059ZM1218.79 765.138C1218.9 765.785 1219.01 766.431 1219.13 767.078C1219.23 767.678 1219.39 768.293 1219.59 768.923L1248.06 752.517C1246.46 749.371 1244.81 746.733 1243.1 744.605C1241.43 742.422 1239.78 740.69 1238.12 739.409C1236.47 738.128 1234.87 737.267 1233.32 736.825C1231.8 736.329 1230.4 736.194 1229.11 736.42C1227.17 736.76 1225.52 737.428 1224.17 738.426C1222.83 739.423 1221.71 740.666 1220.83 742.153C1219.99 743.585 1219.32 745.224 1218.84 747.07C1218.4 748.908 1218.11 750.837 1217.99 752.857C1217.87 754.877 1217.88 756.946 1218.01 759.064C1218.18 761.128 1218.44 763.153 1218.79 765.138ZM717.165 1027.94C716.405 1023.6 716.087 1019.21 716.212 1014.76C716.376 1010.26 716.673 1006.11 717.104 1002.32L705.256 1005.18L732.589 962.351C731.391 971.269 730.555 979.268 730.082 986.346L757.423 983.913L755.347 992.843L729.564 999.286C729.508 1002.77 729.525 1005.86 729.617 1008.56C729.747 1011.2 729.854 1013.44 729.938 1015.28C730.079 1017.45 730.241 1019.32 730.424 1020.91C731.232 1025.52 732.237 1029.63 733.438 1033.23C734.639 1036.82 736.047 1039.84 737.662 1042.27C739.316 1044.64 741.168 1046.39 743.219 1047.5C745.309 1048.57 747.623 1048.87 750.163 1048.43C752.518 1048.02 754.399 1047.21 755.807 1046.01C757.253 1044.76 758.332 1043.31 759.043 1041.66C759.746 1039.97 760.143 1038.16 760.235 1036.24C760.319 1034.28 760.199 1032.37 759.876 1030.52C759.577 1028.82 759.147 1027.18 758.587 1025.61C760.75 1026.28 762.538 1027.66 763.95 1029.74C765.4 1031.77 766.356 1034.1 766.817 1036.73C767.294 1039.46 767.252 1041.94 766.693 1044.18C766.18 1046.41 765.263 1048.38 763.944 1050.09C762.617 1051.75 760.956 1053.13 758.961 1054.24C756.967 1055.35 754.746 1056.12 752.299 1056.55C750.821 1056.81 749.038 1056.95 746.95 1056.99C744.908 1057.01 742.725 1056.78 740.402 1056.28C738.086 1055.83 735.729 1055 733.33 1053.8C730.931 1052.61 728.682 1050.91 726.583 1048.7C724.484 1046.5 722.593 1043.72 720.908 1040.35C719.262 1036.92 718.014 1032.79 717.165 1027.94ZM767.501 1014.56C766.596 1009.38 766.567 1004.46 767.414 999.795C768.3 995.071 769.915 990.839 772.258 987.097C774.647 983.348 777.692 980.221 781.393 977.717C785.133 975.158 789.404 973.458 794.206 972.617C798.869 971.801 803.294 971.93 807.48 973.005C811.657 974.034 815.452 975.868 818.865 978.506C822.277 981.145 825.222 984.508 827.699 988.595C830.175 992.682 832.04 997.352 833.293 1002.61C834.611 1008.23 834.912 1013.48 834.197 1018.37C833.52 1023.2 832.01 1027.48 829.668 1031.22C827.317 1034.92 824.263 1038 820.507 1040.46C816.798 1042.92 812.588 1044.56 807.879 1045.39C803.354 1046.18 798.895 1046.13 794.503 1045.23C790.148 1044.28 786.126 1042.51 782.437 1039.92C778.793 1037.32 775.652 1033.92 773.013 1029.72C770.365 1025.48 768.528 1020.42 767.501 1014.56ZM784.745 1012.75C785.457 1016.81 786.677 1020.38 788.405 1023.46C790.133 1026.53 792.169 1029.06 794.513 1031.03C796.848 1032.95 799.395 1034.31 802.153 1035.11C804.911 1035.91 807.698 1036.07 810.514 1035.58C813.331 1035.08 815.858 1034.02 818.094 1032.39C820.323 1030.72 822.144 1028.61 823.556 1026.08C824.961 1023.5 825.896 1020.56 826.362 1017.24C826.828 1013.92 826.725 1010.35 826.054 1006.51C825.391 1002.73 824.261 999.262 822.663 996.115C821.057 992.923 819.112 990.241 816.828 988.072C814.591 985.894 812.1 984.307 809.356 983.313C806.612 982.318 803.763 982.079 800.808 982.597C798.176 983.058 795.718 984.107 793.435 985.744C791.198 987.373 789.313 989.512 787.778 992.16C786.235 994.762 785.15 997.807 784.524 1001.3C783.943 1004.78 784.017 1008.59 784.745 1012.75ZM884.216 998.684C883.456 994.344 883.138 989.95 883.264 985.502C883.427 981 883.724 976.855 884.156 973.068L872.307 975.928L899.64 933.094C898.442 942.013 897.606 950.011 897.133 957.09L924.475 954.657L922.398 963.587L896.615 970.029C896.559 973.513 896.577 976.603 896.668 979.3C896.798 981.942 896.905 984.184 896.989 986.025C897.13 988.189 897.292 990.064 897.475 991.651C898.284 996.268 899.288 1000.37 900.489 1003.97C901.69 1007.57 903.098 1010.58 904.714 1013.01C906.367 1015.39 908.219 1017.13 910.271 1018.25C912.36 1019.31 914.675 1019.62 917.214 1019.17C919.569 1018.76 921.45 1017.96 922.858 1016.76C924.305 1015.5 925.383 1014.05 926.094 1012.41C926.797 1010.71 927.194 1008.91 927.286 1006.99C927.37 1005.02 927.251 1003.12 926.927 1001.27C926.628 999.56 926.198 997.922 925.638 996.355C927.802 997.023 929.589 998.399 931.001 1000.48C932.451 1002.51 933.407 1004.85 933.868 1007.48C934.345 1010.2 934.304 1012.68 933.744 1014.92C933.231 1017.15 932.314 1019.12 930.995 1020.83C929.668 1022.49 928.007 1023.87 926.013 1024.99C924.018 1026.1 921.797 1026.87 919.35 1027.29C917.873 1027.55 916.09 1027.7 914.002 1027.73C911.96 1027.76 909.777 1027.52 907.453 1027.02C905.137 1026.57 902.78 1025.75 900.381 1024.55C897.982 1023.35 895.733 1021.65 893.635 1019.45C891.536 1017.25 889.644 1014.46 887.959 1011.09C886.313 1007.67 885.065 1003.53 884.216 998.684ZM933.847 1020.4L942.997 1009.88L934.402 931.861L917.611 926.878L941.413 918.498L948.519 957.442C949.692 954.904 951.1 952.754 952.743 950.991C954.377 949.182 956.022 947.704 957.677 946.558C959.378 945.403 960.962 944.531 962.429 943.941C963.943 943.343 965.138 942.967 966.015 942.813C970.355 942.053 974.164 942.195 977.44 943.24C980.708 944.238 983.504 945.937 985.828 948.338C988.198 950.73 990.126 953.724 991.612 957.318C993.136 960.858 994.278 964.799 995.039 969.139C995.459 971.54 995.7 974.139 995.762 976.936C995.869 979.725 995.843 982.561 995.681 985.444C995.512 988.282 995.238 991.066 994.86 993.797C994.52 996.474 994.116 998.924 993.649 1001.15L1008.7 1006.36L973.475 1016.39L986.229 999.949C986.277 996.419 986.177 993.129 985.928 990.079C985.726 987.021 985.398 984.2 984.945 981.614C984.719 980.321 984.352 978.767 983.844 976.953C983.382 975.13 982.746 973.267 981.937 971.362C981.119 969.411 980.144 967.512 979.011 965.664C977.879 963.816 976.528 962.22 974.961 960.877C973.439 959.525 971.693 958.523 969.723 957.868C967.798 957.206 965.612 957.089 963.165 957.518C960.764 957.938 958.387 958.902 956.034 960.408C953.726 961.907 951.759 963.989 950.132 966.653L957.918 1008.26L968.476 1014.34L933.847 1020.4ZM1025.12 979.076C1026.17 981.556 1027.42 983.954 1028.88 986.269C1030.32 988.539 1031.95 990.513 1033.77 992.194C1035.59 993.874 1037.57 995.145 1039.72 996.006C1041.87 996.867 1044.17 997.083 1046.61 996.654C1049.85 996.088 1052.54 994.926 1054.71 993.166C1056.88 991.407 1058.54 989.378 1059.71 987.079C1060.87 984.735 1061.54 982.286 1061.71 979.734C1061.87 977.136 1061.57 974.737 1060.81 972.54C1062.19 972.821 1063.37 973.305 1064.34 973.99C1065.37 974.668 1066.2 975.474 1066.84 976.409C1067.52 977.289 1068.04 978.245 1068.41 979.274C1068.77 980.258 1069.04 981.234 1069.21 982.204C1069.6 984.42 1069.33 986.68 1068.4 988.984C1067.46 991.242 1065.96 993.386 1063.88 995.414C1061.85 997.388 1059.33 999.139 1056.31 1000.67C1053.29 1002.19 1049.89 1003.29 1046.11 1003.95C1041.03 1004.84 1036.31 1004.65 1031.94 1003.36C1027.62 1002.07 1023.78 999.986 1020.42 997.101C1017.05 994.169 1014.23 990.548 1011.95 986.235C1009.67 981.923 1008.08 977.181 1007.18 972.01C1006.25 966.746 1006.14 961.769 1006.85 957.077C1007.54 952.34 1009.04 948.151 1011.35 944.51C1013.71 940.86 1016.85 937.86 1020.77 935.508C1024.69 933.156 1029.42 931.661 1034.98 931.022C1038.81 930.636 1042.49 931.11 1046 932.445C1049.52 933.78 1052.72 935.742 1055.6 938.331C1058.52 940.866 1061.03 943.924 1063.13 947.505C1065.28 951.079 1066.88 954.915 1067.93 959.014L1025.12 979.076ZM1021.85 968.155C1021.96 968.802 1022.08 969.448 1022.19 970.095C1022.29 970.695 1022.45 971.31 1022.65 971.94L1051.12 955.534C1049.52 952.388 1047.87 949.75 1046.16 947.622C1044.5 945.439 1042.84 943.707 1041.18 942.426C1039.53 941.145 1037.93 940.284 1036.38 939.842C1034.86 939.346 1033.46 939.211 1032.17 939.437C1030.23 939.777 1028.58 940.445 1027.24 941.443C1025.89 942.44 1024.77 943.683 1023.89 945.169C1023.05 946.602 1022.38 948.241 1021.9 950.087C1021.46 951.925 1021.18 953.854 1021.05 955.874C1020.93 957.894 1020.94 959.963 1021.07 962.081C1021.24 964.145 1021.5 966.17 1021.85 968.155ZM1133.09 913.696C1134.85 913.388 1136.65 913.239 1138.51 913.247C1140.36 913.208 1142.19 913.34 1144 913.641C1145.85 913.887 1147.61 914.293 1149.28 914.857C1150.99 915.367 1152.55 915.998 1153.97 916.749L1162.88 900.77L1163.81 936.227C1162.83 933.923 1161.45 931.738 1159.66 929.672C1157.86 927.56 1155.76 925.763 1153.36 924.28C1151.01 922.788 1148.39 921.723 1145.52 921.084C1142.64 920.399 1139.61 920.335 1136.42 920.893C1134.67 921.2 1133.02 921.703 1131.47 922.402C1129.92 923.054 1128.6 923.928 1127.51 925.024C1126.46 926.111 1125.69 927.389 1125.18 928.858C1124.72 930.318 1124.66 931.972 1124.98 933.819C1125.37 936.035 1126.28 937.73 1127.73 938.905C1129.22 940.072 1131.04 940.967 1133.19 941.588C1135.34 942.164 1137.74 942.576 1140.4 942.824C1143.06 943.025 1145.79 943.261 1148.59 943.531C1151.4 943.801 1154.16 944.221 1156.88 944.792C1159.59 945.317 1162.08 946.191 1164.34 947.413C1166.6 948.635 1168.53 950.318 1170.15 952.463C1171.8 954.553 1172.92 957.307 1173.52 960.723C1174.19 964.556 1174 967.967 1172.96 970.958C1171.95 973.895 1170.42 976.447 1168.37 978.614C1166.32 980.735 1163.93 982.438 1161.2 983.724C1158.48 985.011 1155.75 985.892 1153.03 986.369C1150.81 986.758 1148.55 986.915 1146.26 986.841C1143.96 986.768 1141.7 986.497 1139.48 986.03C1137.25 985.563 1135.09 984.918 1133 984.095C1130.95 983.264 1129.05 982.313 1127.29 981.241L1119.22 997.144L1116.46 962.221C1118.49 965.102 1120.78 967.723 1123.34 970.083C1125.89 972.444 1128.62 974.417 1131.51 976.004C1134.4 977.545 1137.4 978.637 1140.51 979.282C1143.61 979.881 1146.73 979.905 1149.87 979.355C1153.52 978.717 1156.3 977.445 1158.2 975.542C1160.14 973.584 1160.86 971.173 1160.36 968.311C1160.04 966.464 1159.14 965.049 1157.69 964.067C1156.27 963.031 1154.46 962.229 1152.27 961.661C1150.12 961.085 1147.71 960.65 1145.05 960.356C1142.38 960.062 1139.63 959.711 1136.8 959.303C1133.96 958.895 1131.18 958.336 1128.44 957.626C1125.69 956.87 1123.14 955.793 1120.8 954.394C1118.5 952.941 1116.51 951.054 1114.81 948.733C1113.16 946.358 1112.01 943.346 1111.38 939.699C1110.83 936.559 1110.81 933.754 1111.33 931.284C1111.85 928.813 1112.71 926.664 1113.91 924.835C1115.15 922.952 1116.61 921.364 1118.29 920.071C1120 918.724 1121.76 917.631 1123.57 916.791C1125.36 915.906 1127.1 915.221 1128.78 914.737C1130.45 914.253 1131.89 913.906 1133.09 913.696ZM1177.5 977.73L1186.65 967.204L1178.05 889.189L1161.26 884.206L1185.06 875.826L1192.17 914.77C1193.34 912.233 1194.75 910.083 1196.39 908.32C1198.03 906.511 1199.67 905.033 1201.33 903.887C1203.03 902.732 1204.61 901.86 1206.08 901.27C1207.59 900.672 1208.79 900.296 1209.67 900.142C1214.01 899.382 1217.81 899.524 1221.09 900.568C1224.36 901.566 1227.15 903.266 1229.48 905.666C1231.85 908.059 1233.78 911.053 1235.26 914.647C1236.79 918.187 1237.93 922.127 1238.69 926.468C1239.11 928.868 1239.35 931.467 1239.41 934.264C1239.52 937.053 1239.49 939.889 1239.33 942.773C1239.16 945.61 1238.89 948.395 1238.51 951.126C1238.17 953.803 1237.77 956.253 1237.3 958.476L1252.35 963.693L1217.13 973.716L1229.88 957.277C1229.93 953.747 1229.83 950.457 1229.58 947.408C1229.38 944.35 1229.05 941.528 1228.6 938.943C1228.37 937.65 1228 936.096 1227.49 934.281C1227.03 932.459 1226.4 930.595 1225.59 928.691C1224.77 926.74 1223.79 924.841 1222.66 922.993C1221.53 921.145 1220.18 919.549 1218.61 918.206C1217.09 916.854 1215.34 915.851 1213.37 915.197C1211.45 914.535 1209.26 914.418 1206.82 914.846C1204.42 915.267 1202.04 916.23 1199.68 917.737C1197.38 919.236 1195.41 921.317 1193.78 923.982L1201.57 965.59L1212.13 971.665L1177.5 977.73ZM1250.92 929.893C1250.02 924.721 1249.99 919.801 1250.84 915.132C1251.72 910.408 1253.34 906.175 1255.68 902.434C1258.07 898.684 1261.12 895.557 1264.82 893.053C1268.56 890.495 1272.83 888.795 1277.63 887.954C1282.29 887.137 1286.72 887.267 1290.9 888.342C1295.08 889.371 1298.88 891.205 1302.29 893.843C1305.7 896.481 1308.65 899.844 1311.12 903.931C1313.6 908.019 1315.46 912.689 1316.72 917.942C1318.03 923.565 1318.34 928.818 1317.62 933.702C1316.94 938.532 1315.43 942.817 1313.09 946.559C1310.74 950.254 1307.69 953.335 1303.93 955.801C1300.22 958.259 1296.01 959.901 1291.3 960.725C1286.78 961.518 1282.32 961.466 1277.93 960.57C1273.57 959.619 1269.55 957.849 1265.86 955.259C1262.22 952.661 1259.08 949.261 1256.44 945.06C1253.79 940.812 1251.95 935.756 1250.92 929.893ZM1268.17 928.086C1268.88 932.149 1270.1 935.719 1271.83 938.795C1273.56 941.871 1275.59 944.394 1277.94 946.363C1280.27 948.285 1282.82 949.648 1285.58 950.45C1288.33 951.252 1291.12 951.406 1293.94 950.913C1296.75 950.419 1299.28 949.358 1301.52 947.729C1303.75 946.054 1305.57 943.951 1306.98 941.419C1308.38 938.841 1309.32 935.893 1309.79 932.576C1310.25 929.258 1310.15 925.683 1309.48 921.851C1308.81 918.065 1307.68 914.598 1306.09 911.452C1304.48 908.259 1302.54 905.578 1300.25 903.408C1298.01 901.23 1295.52 899.644 1292.78 898.649C1290.04 897.655 1287.19 897.416 1284.23 897.933C1281.6 898.394 1279.14 899.443 1276.86 901.081C1274.62 902.71 1272.74 904.848 1271.2 907.496C1269.66 910.099 1268.57 913.144 1267.95 916.632C1267.37 920.113 1267.44 923.931 1268.17 928.086ZM1402.38 869.033L1393.48 879.372L1397.45 930.144L1408.19 934.83L1378.75 943.626L1383.97 935.144L1363.74 909.706L1357.42 939.651L1365.25 944.419L1337.84 952.147L1346.04 941.502L1325.2 893.4L1311.97 890.434L1348.51 876.112L1341.81 887.206L1352.37 929.971L1362.86 882.236L1384.5 921.419L1386.25 878.853L1371.04 873.95L1402.38 869.033Z" fill="white"/>
  <path d="M1434.37 736.945L1428.73 651.32L1486.74 698.899L1552.77 685.078L1528.44 734.783L1559.87 799.552L1500.48 785.004L1475.55 860.812L1456.88 786.77L1382.01 774.991L1434.37 736.945Z" stroke="#FFFDFD" stroke-opacity="0.8" stroke-width="20"/>
</g>


  

</svg>