<svg width="349" height="368" viewBox="0 0 349 368" fill="none" xmlns="http://www.w3.org/2000/svg">
<path d="M81.3379 126.941C72.1658 129.284 64.9777 127.543 59.7737 121.716C54.9765 116.405 51.3156 108.808 48.7909 98.9253C46.2663 89.0427 46.5689 80.2612 49.6986 72.5809C52.8119 64.8361 58.6316 59.8746 67.1578 57.6965C71.2917 56.6404 75.4291 56.2715 79.5701 56.5898L79.5028 62.3868C76.0436 62.5825 72.7638 63.0763 69.6633 63.8683C56.1635 67.317 51.8063 78.4072 56.5915 97.139C60.0072 110.51 65.0754 118.229 71.7963 120.296C74.5492 121.107 77.6697 121.066 81.1577 120.175C86.7772 118.74 91.3692 115.571 94.9336 110.67L97.7461 115.215C94.6876 121.019 89.2182 124.928 81.3379 126.941ZM108.019 110.011L92.0049 47.3237L98.6839 44.379L113.98 104.256C114.855 107.679 115.682 109.842 116.463 110.743C117.227 111.58 118.837 111.685 121.291 111.058L122.574 115.272C121.656 115.988 119.97 116.659 117.515 117.286C115.061 117.914 113.071 117.665 111.545 116.541C110.019 115.417 108.844 113.24 108.019 110.011ZM143.837 110.562C140.866 111.321 138.617 111.139 137.092 110.015C135.566 108.891 134.391 106.714 133.566 103.484L124.061 66.2792L131.037 64.4971L139.527 97.7298C140.401 101.153 141.229 103.316 142.01 104.217C142.774 105.054 144.383 105.159 146.838 104.532L148.121 108.745C146.751 109.577 145.323 110.183 143.837 110.562ZM119.497 51.241C118.722 48.2051 119.819 46.3077 122.791 45.5486C125.504 44.8556 127.239 45.9947 127.999 48.966C128.741 51.8726 127.691 53.689 124.849 54.415C122.007 55.141 120.223 54.083 119.497 51.241ZM175.975 102.765C163.896 105.851 155.959 99.9657 152.164 85.1094C150.282 77.7459 150.499 71.1881 152.814 65.4362C155.194 59.6677 159.71 55.9337 166.363 54.2341C170.174 53.2605 173.73 53.0402 177.032 53.573L177.253 58.8834C174.374 58.6557 171.481 58.9131 168.574 59.6556C159.079 62.0812 156.048 70.0117 159.48 83.4469C162.268 94.363 167.667 98.798 175.677 96.7519C179.746 95.7123 183.268 93.6084 186.243 90.4401L188.274 93.9465C187.072 95.9738 185.303 97.8019 182.967 99.4309C180.695 101.043 178.364 102.155 175.975 102.765ZM200.976 95.1398L182.833 24.1206L189.125 21.2748L196.028 47.8944C196.903 51.3178 197.461 54.5811 197.703 57.6844L198.285 57.5359C198.541 53.9612 199.746 50.8666 201.899 48.2523C204.053 45.638 206.906 43.8771 210.458 42.9696C214.011 42.062 217.165 42.2884 219.921 43.6486C222.741 44.9924 224.605 47.4405 225.513 50.9931C226.404 54.4811 225.766 57.7748 223.599 60.8742C221.415 63.9091 218.372 66.4067 214.469 68.367L222.589 76.7172C225.092 79.2429 227.21 80.9379 228.945 81.8022C230.663 82.6018 232.491 82.7541 234.429 82.2591L235.736 86.5696C235.431 86.9915 234.504 87.4005 232.953 87.7965C229.853 88.5886 227.168 88.4488 224.899 87.3771C222.613 86.2408 220.169 84.216 217.567 81.3027L206.322 68.7969L205.877 67.0529C209.946 66.0134 213.235 64.2098 215.744 61.6422C218.254 59.0746 219.079 56.1113 218.221 52.7525C217.759 50.944 216.791 49.712 215.316 49.0566C213.906 48.3847 212.264 48.2881 210.391 48.7666C207.355 49.5421 205.06 51.3325 203.506 54.1378C200.799 59.1642 200.453 65.6175 202.466 73.4977L207.564 93.4568L200.976 95.1398ZM84.063 239.571L86.1209 243.587C84.028 245.36 81.3021 246.676 77.9433 247.534C73.1635 248.755 69.6685 248.271 67.4582 246.084C65.248 243.896 63.4251 239.993 61.9895 234.373L55.5047 208.988L47.7536 210.968L46.6893 206.802L54.1928 203.853L51.6187 193.777L58.2977 190.832L61.1688 202.071L73.6674 198.878L74.9792 204.013L62.4806 207.206L68.4209 230.459C69.9555 236.466 71.4045 239.984 72.768 241.012C74.4394 242.167 76.3732 242.465 78.5693 241.904C80.7654 241.343 82.5967 240.565 84.063 239.571ZM112.519 233.231C115.748 232.406 118.141 230.728 119.696 228.198C121.252 225.667 122.022 222.89 122.006 219.867C122.055 216.827 121.61 213.466 120.669 209.784C117.715 198.222 112.137 193.489 103.934 195.584C100.898 196.36 98.6263 197.972 97.119 200.422C94.3764 204.769 93.9621 210.689 95.8762 218.182C98.9619 230.261 104.509 235.277 112.519 233.231ZM127.96 208.025C129.776 215.13 129.493 221.566 127.114 227.335C124.782 233.022 120.225 236.732 113.443 238.465C106.726 240.181 101.451 239.464 97.6186 236.315C93.7699 233.101 90.8803 227.715 88.9497 220.158C87.0191 212.6 87.1317 206.173 89.2873 200.874C91.4265 195.511 95.8225 191.98 102.476 190.28C109.129 188.581 114.59 189.353 118.859 192.597C123.111 195.777 126.145 200.919 127.96 208.025ZM160.548 244.081C161.518 244.108 162.746 243.932 164.232 243.552C165.653 243.189 166.774 242.731 167.596 242.177C168.499 241.671 169.192 241.15 169.674 240.614C170.156 240.078 170.484 239.341 170.657 238.402C170.895 237.447 171.028 236.621 171.057 235.926C171.085 235.23 170.999 234.22 170.798 232.895C170.598 231.571 170.398 230.521 170.2 229.746L156.884 177.62L163.86 175.837L176.26 224.379C178.026 231.29 178.328 236.648 177.168 240.454C176.007 244.26 172.52 246.905 166.706 248.39C164.575 248.935 162.562 249.002 160.668 248.591L160.548 244.081ZM152.126 162.631C151.351 159.595 152.448 157.698 155.42 156.938C158.133 156.245 159.868 157.385 160.628 160.356C161.37 163.262 160.32 165.079 157.478 165.805C154.636 166.531 152.852 165.473 152.126 162.631ZM207.61 208.939C210.839 208.114 213.232 206.436 214.787 203.906C216.343 201.375 217.113 198.598 217.097 195.575C217.146 192.535 216.7 189.174 215.76 185.492C212.806 173.93 207.228 169.197 199.025 171.292C195.989 172.068 193.717 173.68 192.21 176.13C189.467 180.477 189.053 186.397 190.967 193.89C194.053 205.969 199.6 210.985 207.61 208.939ZM223.051 183.733C224.866 190.838 224.584 197.275 222.204 203.043C219.873 208.73 215.316 212.44 208.534 214.173C201.816 215.889 196.541 215.172 192.709 212.023C188.861 208.809 185.971 203.423 184.04 195.866C182.11 188.308 182.222 181.881 184.378 176.582C186.517 171.219 190.913 167.688 197.566 165.988C204.219 164.289 209.68 165.061 213.95 168.305C218.202 171.485 221.236 176.627 223.051 183.733ZM251.602 202.758C248.63 203.517 246.382 203.334 244.856 202.21C243.331 201.086 242.155 198.91 241.33 195.68L231.826 158.475L238.802 156.693L247.291 189.925C248.166 193.349 248.994 195.511 249.774 196.413C250.539 197.25 252.148 197.355 254.602 196.728L255.885 200.941C254.515 201.773 253.087 202.378 251.602 202.758ZM227.262 143.437C226.486 140.401 227.584 138.503 230.555 137.744C233.268 137.051 235.004 138.19 235.763 141.162C236.506 144.068 235.456 145.885 232.614 146.611C229.772 147.337 227.988 146.279 227.262 143.437ZM264.553 152.179C265.427 155.602 265.903 158.542 265.981 161L266.562 160.851C266.542 157.003 267.56 153.715 269.616 150.988C271.72 148.18 274.645 146.298 278.391 145.341C283.494 144.037 287.344 144.43 289.942 146.518C292.523 148.542 294.466 152.106 295.769 157.209C295.819 157.402 296.596 160.713 298.1 167.141C299.669 173.552 300.676 177.629 301.122 179.373C301.567 181.117 302.091 182.36 302.693 183.1C303.36 183.825 304.856 183.89 307.181 183.296L308.489 187.606C307.683 188.225 306.409 188.757 304.665 189.202C301.564 189.994 299.251 189.828 297.726 188.704C296.265 187.564 295.138 185.443 294.346 182.343C294.313 182.214 293.486 178.709 291.867 171.83C290.247 164.95 289.404 161.381 289.338 161.122C288.381 157.376 287.154 154.593 285.657 152.774C284.143 150.89 281.933 150.319 279.027 151.061C276.185 151.787 274.026 153.302 272.55 155.606C271.139 157.893 270.32 160.614 270.094 163.768C269.785 169.833 270.44 176.03 272.057 182.36L275.497 195.828L268.812 197.536L257.179 151.998L263.835 149.369L264.553 152.179ZM87.975 359.02C90.8171 358.294 93.042 357.037 94.6498 355.25C96.241 353.399 96.7231 351.246 96.0961 348.791C95.4361 346.208 93.689 344.487 90.855 343.628C89.4462 343.231 87.7791 342.9 85.8536 342.635C83.9116 342.305 82.7221 342.093 82.285 341.998C78.6924 341.402 75.7443 340.367 73.4406 338.891C71.2016 337.399 69.6283 334.876 68.7208 331.324C67.7968 327.706 68.5158 324.461 70.8779 321.587C73.2235 318.648 76.3664 316.675 80.3066 315.669C84.2467 314.662 87.9973 314.53 91.5583 315.272L91.6064 319.904C88.1457 319.825 85.1559 320.107 82.6368 320.75C80.1823 321.377 78.1992 322.503 76.6876 324.128C75.1596 325.688 74.6513 327.469 75.1628 329.471C75.6744 331.474 76.6922 332.9 78.2165 333.749C79.7243 334.533 81.1983 335.051 82.6387 335.303C84.1436 335.537 85.7214 335.788 87.3721 336.054C89.0708 336.24 90.1792 336.404 90.6974 336.547C91.2155 336.689 92.179 336.959 93.5877 337.356C94.98 337.689 95.9765 338.088 96.5771 338.554C97.2424 339.003 98.0217 339.63 98.9151 340.434C100.555 341.735 101.754 343.871 102.513 346.842C103.602 351.105 102.861 354.804 100.29 357.938C97.703 361.007 93.9547 363.169 89.0457 364.423C84.2013 365.66 79.4934 365.143 74.922 362.87L74.9977 358.722C79.257 360.043 83.5828 360.142 87.975 359.02ZM131.588 314.438C131.11 312.565 130.165 311.292 128.755 310.62C127.345 309.948 125.671 309.86 123.733 310.355C119.858 311.345 117.234 313.735 115.863 317.526C114.476 321.252 114.198 325.417 115.03 330.021C127.884 326.737 133.403 321.543 131.588 314.438ZM132.636 353.287C120.493 356.389 112.441 350.189 108.481 334.687C106.666 327.582 106.941 321.25 109.305 315.692C111.734 310.117 116.211 306.497 122.735 304.83C126.739 303.807 130.152 303.967 132.972 305.311C135.841 306.574 137.704 308.885 138.562 312.243C139.403 315.538 139.289 318.457 138.219 321.001C137.197 323.464 135.469 325.591 133.037 327.382C128.462 330.752 122.816 333.296 116.098 335.012C118.722 345.282 124.136 349.369 132.339 347.274C136.473 346.218 140.092 344.089 143.196 340.888L145.227 344.394C144.025 346.421 142.223 348.258 139.822 349.903C137.486 351.532 135.091 352.66 132.636 353.287ZM166.602 338.933C169.444 338.207 171.669 336.951 173.277 335.164C174.868 333.313 175.35 331.16 174.723 328.705C174.063 326.121 172.316 324.4 169.482 323.542C168.073 323.145 166.406 322.814 164.481 322.549C162.539 322.219 161.349 322.007 160.912 321.912C157.32 321.316 154.372 320.28 152.068 318.805C149.829 317.312 148.256 314.79 147.348 311.237C146.424 307.62 147.143 304.375 149.505 301.5C151.851 298.562 154.994 296.589 158.934 295.583C162.874 294.576 166.625 294.444 170.186 295.185L170.234 299.818C166.773 299.738 163.783 300.02 161.264 300.664C158.81 301.291 156.826 302.417 155.315 304.042C153.787 305.602 153.279 307.383 153.79 309.385C154.302 311.388 155.32 312.813 156.844 313.663C158.352 314.447 159.826 314.965 161.266 315.216C162.771 315.451 164.349 315.702 165.999 315.968C167.698 316.153 168.806 316.318 169.325 316.46C169.843 316.603 170.806 316.873 172.215 317.27C173.607 317.603 174.604 318.002 175.204 318.468C175.87 318.917 176.649 319.543 177.542 320.347C179.182 321.649 180.382 323.785 181.141 326.756C182.23 331.019 181.489 334.718 178.918 337.852C176.33 340.921 172.582 343.083 167.673 344.337C162.829 345.574 158.121 345.057 153.549 342.784L153.625 338.636C157.884 339.956 162.21 340.056 166.602 338.933ZM203.314 329.555C206.156 328.829 208.381 327.573 209.989 325.786C211.58 323.934 212.062 321.781 211.435 319.327C210.775 316.743 209.028 315.022 206.194 314.163C204.785 313.766 203.118 313.435 201.193 313.17C199.251 312.841 198.061 312.629 197.624 312.534C194.031 311.938 191.083 310.902 188.78 309.426C186.541 307.934 184.967 305.412 184.06 301.859C183.136 298.242 183.855 294.996 186.217 292.122C188.562 289.183 191.705 287.211 195.645 286.204C199.586 285.198 203.336 285.065 206.897 285.807L206.945 290.439C203.485 290.36 200.495 290.642 197.976 291.286C195.521 291.913 193.538 293.038 192.027 294.663C190.498 296.223 189.99 298.004 190.502 300.007C191.013 302.009 192.031 303.435 193.555 304.284C195.063 305.069 196.537 305.587 197.978 305.838C199.483 306.073 201.06 306.323 202.711 306.59C204.41 306.775 205.518 306.939 206.036 307.082C206.554 307.225 207.518 307.495 208.927 307.892C210.319 308.224 211.315 308.623 211.916 309.089C212.581 309.538 213.361 310.165 214.254 310.969C215.894 312.27 217.093 314.406 217.852 317.378C218.941 321.641 218.2 325.339 215.629 328.473C213.042 331.542 209.294 333.704 204.385 334.958C199.54 336.196 194.832 335.678 190.261 333.406L190.337 329.258C194.596 330.578 198.922 330.677 203.314 329.555ZM241.094 325.167C238.123 325.927 235.874 325.744 234.349 324.62C232.823 323.496 231.648 321.319 230.823 318.09L221.318 280.884L228.294 279.102L236.784 312.335C237.658 315.758 238.486 317.921 239.267 318.822C240.031 319.659 241.64 319.764 244.095 319.137L245.378 323.351C244.008 324.182 242.58 324.788 241.094 325.167ZM216.754 265.846C215.978 262.81 217.076 260.913 220.048 260.154C222.76 259.461 224.496 260.6 225.255 263.571C225.998 266.478 224.948 268.294 222.106 269.02C219.264 269.746 217.48 268.688 216.754 265.846ZM272.985 311.963C276.215 311.138 278.608 309.46 280.163 306.93C281.718 304.4 282.488 301.623 282.473 298.599C282.522 295.559 282.076 292.198 281.136 288.516C278.182 276.954 272.604 272.221 264.4 274.317C261.364 275.092 259.093 276.705 257.586 279.154C254.843 283.501 254.429 289.421 256.343 296.914C259.428 308.993 264.976 314.009 272.985 311.963ZM288.427 286.757C290.242 293.862 289.96 300.299 287.58 306.067C285.249 311.755 280.692 315.465 273.91 317.197C267.192 318.913 261.917 318.197 258.085 315.047C254.236 311.833 251.347 306.447 249.416 298.89C247.486 291.333 247.598 284.905 249.754 279.606C251.893 274.243 256.289 270.712 262.942 269.013C269.595 267.313 275.056 268.085 279.325 271.33C283.578 274.509 286.612 279.652 288.427 286.757ZM304.382 261.729C305.256 265.152 305.732 268.093 305.81 270.55L306.391 270.402C306.371 266.553 307.389 263.266 309.445 260.539C311.549 257.731 314.474 255.848 318.22 254.891C323.323 253.588 327.173 253.98 329.771 256.069C332.352 258.093 334.295 261.656 335.598 266.759C335.648 266.953 336.425 270.264 337.929 276.691C339.498 283.102 340.505 287.18 340.951 288.924C341.396 290.668 341.92 291.91 342.522 292.651C343.189 293.375 344.685 293.44 347.01 292.846L348.318 297.157C347.512 297.775 346.238 298.307 344.494 298.753C341.393 299.545 339.08 299.379 337.555 298.255C336.094 297.114 334.967 294.994 334.175 291.893C334.142 291.764 333.315 288.26 331.696 281.38C330.076 274.5 329.233 270.931 329.167 270.673C328.21 266.926 326.983 264.144 325.486 262.324C323.972 260.44 321.762 259.869 318.856 260.612C316.014 261.338 313.855 262.853 312.379 265.156C310.968 267.443 310.149 270.164 309.923 273.318C309.614 279.383 310.269 285.581 311.886 291.911L315.326 305.378L308.641 307.086L297.008 261.549L303.664 258.919L304.382 261.729Z" fill="white"/>
</svg>
